<svg width="62" height="53" viewBox="0 0 62 53" fill="none" xmlns="http://www.w3.org/2000/svg">
<path d="M31.5295 41C30.6635 41 29.7975 40.9029 28.9314 40.7087C28.0654 40.4868 27.2552 40.1955 26.501 39.8349C25.7467 39.4465 25.1041 39.0303 24.5733 38.5865L23.5676 40.7503H19L24.0705 9H29.2667L27.5067 20.0689C28.5683 19.4586 29.6997 19.0009 30.901 18.6957C32.1302 18.3628 33.1778 18.1964 34.0438 18.1964C36.167 18.1964 37.8571 18.8622 39.1143 20.1938C40.3714 21.4976 41 23.3979 41 25.8947C41 26.5327 40.9581 27.2956 40.8743 28.1834C40.7905 29.0433 40.6648 29.9588 40.4971 30.9298C40.1898 33.0381 39.6311 34.8414 38.821 36.3394C38.0108 37.8375 36.9911 38.9887 35.7619 39.7932C34.5327 40.5977 33.1219 41 31.5295 41ZM30.021 36.8388C31.5295 36.8388 32.7308 36.27 33.6248 35.1326C34.5187 33.9675 35.1613 32.1227 35.5524 29.5982C35.6362 29.0433 35.706 28.5301 35.7619 28.0585C35.8178 27.5592 35.8457 27.1014 35.8457 26.6853C35.8457 25.0763 35.5105 23.9528 34.84 23.3147C34.1695 22.6766 33.3454 22.3576 32.3676 22.3576C31.5016 22.3576 30.5937 22.4824 29.6438 22.7321C28.694 22.9818 27.786 23.3286 26.92 23.7724L25.0762 35.2991C25.6908 35.743 26.3892 36.1175 27.1714 36.4226C27.9537 36.7 28.9035 36.8388 30.021 36.8388Z" fill="#643A71"/>
<path d="M48.3111 31C52.7293 31 56.3111 34.5817 56.3111 39V45C56.3111 49.4183 52.7293 53 48.3111 53H8C3.58172 53 1.28855e-07 49.4183 0 45V39C0 34.5817 3.58172 31 8 31H15V40C15 44.4183 18.5817 48 23 48H37.3111C41.7293 48 45.3111 44.4183 45.3111 40V31H48.3111Z" fill="#FF204D"/>
<path d="M53.3111 0C57.7293 8.37533e-07 61.3111 3.58172 61.3111 8V13C61.3111 17.4183 57.7293 21 53.3111 21H45.3111V12C45.3111 7.58172 41.7293 4 37.3111 4H23C18.5817 4 15 7.58172 15 12V21H13C8.58172 21 5 17.4183 5 13V8C5 3.58172 8.58172 8.45586e-08 13 0H53.3111Z" fill="#643A71"/>
</svg>
