<svg width="202" height="71" viewBox="0 0 202 71" fill="none" xmlns="http://www.w3.org/2000/svg">
<mask id="path-1-outside-1_138_54" maskUnits="userSpaceOnUse" x="0.160034" y="15" width="202" height="46" fill="black">
<rect fill="white" x="0.160034" y="15" width="202" height="46"/>
<path d="M4.00003 27C4.00003 26.6267 4.1067 26.3333 4.32003 26.12C4.56003 25.88 4.88003 25.6667 5.28003 25.48C5.41337 25.4 5.89337 25.16 6.72003 24.76C7.57337 24.36 8.3867 24.0533 9.16003 23.84C9.40003 23.3067 9.76003 22.8667 10.24 22.52C10.7467 22.1733 11.3867 22 12.16 22C12.6134 22 12.9867 22.0933 13.28 22.28C13.5734 22.44 13.7734 22.6533 13.88 22.92C14.8667 22.6 16.0534 22.44 17.44 22.44C19.1734 22.44 20.6667 22.8133 21.92 23.56C23.2 24.28 24.16 25.28 24.8 26.56C25.4667 27.84 25.8 29.28 25.8 30.88C25.8 31.2 25.76 31.64 25.68 32.2C24.5867 38.44 19.92 41.56 11.68 41.56C10.9334 41.56 10.3867 41.5467 10.04 41.52L9.52003 43.44C8.96003 45.4933 8.68003 46.5467 8.68003 46.6C8.4667 47.5333 8.13337 48.2533 7.68003 48.76C7.25337 49.2667 6.5467 49.52 5.56003 49.52C4.73337 49.52 4.12003 49.3733 3.72003 49.08C3.3467 48.8133 3.16003 48.3467 3.16003 47.68C3.16003 47.3867 3.20003 47.1067 3.28003 46.84L8.12003 28.16C6.73337 28.56 5.68003 29.1067 4.96003 29.8C4.6667 29.48 4.4267 29.0667 4.24003 28.56C4.08003 28.0267 4.00003 27.5067 4.00003 27ZM10.88 37.8C11.2 37.8267 11.6534 37.84 12.24 37.84C14.7734 37.84 16.7734 37.36 18.24 36.4C19.7334 35.44 20.6934 33.96 21.12 31.96C21.2 31.5067 21.24 31.1733 21.24 30.96C21.24 29.4667 20.8267 28.36 20 27.64C19.1734 26.8933 18.0134 26.52 16.52 26.52C15.72 26.52 14.6934 26.7067 13.44 27.08C12.4 31.2133 11.5467 34.7867 10.88 37.8Z"/>
<path d="M34.7769 49.84C32.4302 49.84 30.6036 49.04 29.2969 47.44C27.9902 45.84 27.3369 43.8 27.3369 41.32C27.3369 39.24 27.8302 37.28 28.8169 35.44C29.8302 33.6 31.2036 32.12 32.9369 31C34.6702 29.88 36.5769 29.32 38.6569 29.32C40.7102 29.32 42.3902 30 43.6969 31.36C45.0302 32.6933 45.6969 34.6667 45.6969 37.28C45.6969 39.12 45.1902 41.0267 44.1769 43C43.1636 44.9733 41.8036 46.6133 40.0969 47.92C38.4169 49.2 36.6436 49.84 34.7769 49.84ZM35.3769 46.64C36.2302 46.64 37.0836 46.1067 37.9369 45.04C38.8169 43.9733 39.5369 42.6267 40.0969 41C40.6569 39.3733 40.9369 37.7867 40.9369 36.24C40.9369 33.8667 39.9502 32.68 37.9769 32.68C36.8836 32.68 35.8836 33.2 34.9769 34.24C34.0702 35.28 33.3502 36.5733 32.8169 38.12C32.2836 39.64 32.0169 41.0667 32.0169 42.4C32.0169 43.1733 32.1902 43.8933 32.5369 44.56C32.8836 45.2 33.3102 45.7067 33.8169 46.08C34.3502 46.4533 34.8702 46.64 35.3769 46.64Z"/>
<path d="M51.8494 47.24C51.8227 47.4 51.4627 48.8533 50.7694 51.6C50.1027 54.3733 49.6361 56.12 49.3694 56.84C49.2627 57.1333 48.9427 57.3467 48.4094 57.48C47.8761 57.64 47.4894 57.72 47.2494 57.72C46.6627 57.72 46.1827 57.5333 45.8094 57.16C45.4094 56.7867 45.1961 56.2267 45.1694 55.48L47.9694 44C49.0361 39.8133 49.9161 36.24 50.6094 33.28C50.6094 33.12 50.5161 32.6933 50.3294 32C50.2494 31.5733 50.1694 31.1733 50.0894 30.8C50.0094 30.4267 49.9561 30.1467 49.9294 29.96C49.9827 29.6133 50.2494 29.3333 50.7294 29.12C51.2361 28.9067 51.7027 28.8 52.1294 28.8C52.7694 28.8 53.3961 29.0267 54.0094 29.48C54.6494 29.9333 55.0094 30.48 55.0894 31.12L54.9694 32.16C56.1694 30.6667 57.7027 29.92 59.5694 29.92C61.0894 29.92 62.3961 30.2933 63.4894 31.04C64.6094 31.76 65.4627 32.7467 66.0494 34C66.6361 35.2267 66.9294 36.5867 66.9294 38.08C66.9294 40.08 66.5427 41.96 65.7694 43.72C64.9961 45.48 63.8361 46.9067 62.2894 48C60.7427 49.0667 58.8761 49.6 56.6894 49.6C55.9961 49.6 55.1027 49.3733 54.0094 48.92C52.9161 48.44 52.1961 47.88 51.8494 47.24ZM53.0894 42.16C53.0361 42.48 53.0094 42.7067 53.0094 42.84C53.0361 43.5067 53.2494 44.0933 53.6494 44.6C54.0761 45.1067 54.5694 45.5067 55.1294 45.8C55.6894 46.0667 56.1561 46.2 56.5294 46.2C57.7027 46.2 58.7294 45.76 59.6094 44.88C60.5161 43.9733 61.2094 42.8667 61.6894 41.56C62.1694 40.2267 62.4094 38.96 62.4094 37.76C62.4094 36.64 62.1027 35.6533 61.4894 34.8C60.9027 33.92 60.1561 33.48 59.2494 33.48C58.2361 33.48 57.3961 33.7067 56.7294 34.16C56.0894 34.5867 55.3561 35.2533 54.5294 36.16L53.0894 42.16Z"/>
<path d="M98.8222 22.28C99.8089 22.4667 100.449 22.6267 100.742 22.76C101.062 22.8667 101.276 23.04 101.382 23.28C100.822 25.44 100.089 28.5067 99.1822 32.48C98.2756 36.4267 97.6622 39.08 97.3422 40.44C96.7556 43.16 96.2089 45.5733 95.7022 47.68C95.3289 49.1467 94.7422 49.88 93.9422 49.88C91.4889 49.88 90.2622 49.3067 90.2622 48.16C90.2622 48.5067 90.5689 47.2533 91.1822 44.4C91.7956 41.5467 92.1689 39.8133 92.3022 39.2L93.1822 35.04L84.3022 48C83.8756 48.5333 83.2489 48.8 82.4222 48.8C81.7289 48.8 81.0756 48.6267 80.4622 48.28C79.8755 47.9333 79.6222 47.5867 79.7022 47.24C79.5156 46.3333 79.1689 44.6133 78.6622 42.08C78.1556 39.52 77.6356 36.8533 77.1022 34.08L73.7422 47.56C73.5556 48.3333 73.2622 48.8533 72.8622 49.12C72.4889 49.3867 71.7689 49.52 70.7022 49.52C69.8756 49.52 69.2622 49.3733 68.8622 49.08C68.4889 48.8133 68.3022 48.3467 68.3022 47.68C68.3022 47.3867 68.3422 47.1067 68.4222 46.84L73.9022 25.2C74.1956 24.0267 74.5022 23.2533 74.8222 22.88C75.1689 22.48 75.7822 22.28 76.6622 22.28C77.3822 22.28 78.0222 22.36 78.5822 22.52C79.1422 22.68 79.4356 22.92 79.4622 23.24V23.32L83.1422 43.2L95.8222 24C96.0889 23.4133 96.3822 23.0267 96.7022 22.84C97.0489 22.6533 97.4356 22.5333 97.8622 22.48C98.2889 22.4 98.6089 22.3333 98.8222 22.28Z"/>
<path d="M118.681 48.32C118.494 48.8 118.054 49.12 117.361 49.28C116.694 49.4667 116.108 49.56 115.601 49.56C115.121 49.56 114.801 49.44 114.641 49.2C114.508 48.9867 114.388 48.6533 114.281 48.2C114.174 47.7467 114.108 47.44 114.081 47.28C112.934 48.0533 111.761 48.64 110.561 49.04C109.388 49.4667 108.401 49.68 107.601 49.68C106.908 49.68 106.121 49.4533 105.241 49C104.388 48.5467 103.654 47.9333 103.041 47.16C102.428 46.3867 102.121 45.5333 102.121 44.6C102.121 43.1067 102.614 41.2 103.601 38.88C104.588 36.56 105.974 34.5333 107.761 32.8C109.574 31.0667 111.681 30.2 114.081 30.2C116.188 30.2 118.068 30.5333 119.721 31.2C121.374 31.8667 122.201 32.8133 122.201 34.04C121.454 35.4267 120.641 37.5067 119.761 40.28C118.908 43.0533 118.481 45.1067 118.481 46.44C118.481 47.32 118.548 47.9467 118.681 48.32ZM114.161 43.92C114.374 42.7467 114.734 41.36 115.241 39.76C115.774 38.1333 116.481 36.5067 117.361 34.88C117.228 34.3467 116.801 34 116.081 33.84C115.388 33.6533 114.761 33.56 114.201 33.56C113.214 33.56 112.148 34.2267 111.001 35.56C109.854 36.8933 108.868 38.4533 108.041 40.24C107.241 42 106.841 43.4267 106.841 44.52C106.841 45.0533 106.988 45.44 107.281 45.68C107.574 45.8933 107.948 46 108.401 46C109.014 46 109.988 45.7733 111.321 45.32C112.681 44.84 113.628 44.3733 114.161 43.92Z"/>
<path d="M128.719 44.52C128.719 45.1333 128.826 45.56 129.039 45.8C129.252 46.04 129.652 46.16 130.239 46.16C131.012 46.16 131.652 46 132.159 45.68C132.692 45.3333 133.332 44.8 134.079 44.08C134.292 43.8667 134.532 43.76 134.799 43.76C135.119 43.76 135.372 44 135.559 44.48C135.746 44.9333 135.839 45.4 135.839 45.88C135.839 46.5467 135.572 47.2 135.039 47.84C134.506 48.48 133.732 49 132.719 49.4C131.706 49.8 130.519 50 129.159 50C127.346 50 126.052 49.5867 125.279 48.76C124.532 47.9333 124.159 46.6667 124.159 44.96C124.159 44.72 124.279 44.0933 124.519 43.08C124.759 42.0667 125.066 40.8533 125.439 39.44L126.559 34.88L124.119 35.08C123.799 35.08 123.559 34.96 123.399 34.72C123.239 34.48 123.159 34.1867 123.159 33.84C123.159 33.1733 123.399 32.5067 123.879 31.84C123.932 31.76 124.199 31.68 124.679 31.6C125.159 31.52 125.746 31.44 126.439 31.36L127.519 31.24L128.439 27.12C128.706 26.4267 129.106 25.8933 129.639 25.52C130.199 25.12 130.719 24.92 131.199 24.92C131.732 24.92 132.186 25.08 132.559 25.4C132.932 25.72 133.132 26.0933 133.159 26.52L132.159 30.8C133.199 30.6667 134.159 30.56 135.039 30.48C135.946 30.3733 136.652 30.32 137.159 30.32C138.172 30.32 138.679 30.9067 138.679 32.08C138.679 32.5333 138.479 32.9467 138.079 33.32C137.706 33.6667 137.292 33.88 136.839 33.96L131.239 34.52L128.719 44.52Z"/>
<path d="M159.02 43.04C158.727 43.92 158.033 44.8933 156.94 45.96C155.873 47.0267 154.567 47.9467 153.02 48.72C151.473 49.4667 149.86 49.84 148.18 49.84C146.82 49.84 145.54 49.5867 144.34 49.08C143.167 48.5733 142.22 47.8 141.5 46.76C140.78 45.72 140.42 44.4533 140.42 42.96C140.42 40.4533 140.913 38.2267 141.9 36.28C142.887 34.3333 144.287 32.8133 146.1 31.72C147.94 30.6 150.06 30.04 152.46 30.04C154.007 30.04 155.34 30.4933 156.46 31.4C157.607 32.3067 158.193 33.5067 158.22 35C158.22 35.5867 158.02 36.08 157.62 36.48C157.22 36.8533 156.633 37.04 155.86 37.04C155.247 37.04 154.793 36.9067 154.5 36.64C154.233 36.3467 153.967 35.9067 153.7 35.32C153.433 34.7067 153.14 34.24 152.82 33.92C152.5 33.6 151.993 33.44 151.3 33.44C150.5 33.44 149.62 33.8667 148.66 34.72C147.7 35.5467 146.887 36.72 146.22 38.24C145.553 39.7333 145.22 41.4267 145.22 43.32C145.22 44.12 145.527 44.8267 146.14 45.44C146.78 46.0267 147.647 46.32 148.74 46.32C149.647 46.32 150.5 46.0267 151.3 45.44C152.1 44.8267 153.02 43.96 154.06 42.84C154.727 42.1467 155.247 41.64 155.62 41.32C156.02 41 156.367 40.84 156.66 40.84C157.993 40.84 158.78 41.5733 159.02 43.04Z"/>
<path d="M166.381 35.8C166.994 34.6 167.834 33.5733 168.901 32.72C169.994 31.8667 171.101 31.2133 172.221 30.76C173.341 30.3067 174.261 30.08 174.981 30.08C176.368 30.08 177.368 30.3467 177.981 30.88C178.594 31.3867 178.901 32.2 178.901 33.32C177.328 37.4267 176.288 41.8533 175.781 46.6L176.341 48.56C176.021 49.1733 175.594 49.6533 175.061 50C174.528 50.3733 173.714 50.56 172.621 50.56C171.981 50.56 171.514 50.3467 171.221 49.92C170.928 49.4933 170.781 48.96 170.781 48.32C170.781 46.5333 171.034 44.5733 171.541 42.44C172.074 40.28 172.688 38.08 173.381 35.84C173.648 34.9867 173.781 34.5467 173.781 34.52C173.781 34.1467 173.568 33.96 173.141 33.96C172.581 33.96 171.768 34.3733 170.701 35.2C169.634 36.0267 168.528 37.4267 167.381 39.4C166.234 41.3467 165.274 43.9067 164.501 47.08C164.474 47.2133 164.408 47.4933 164.301 47.92C164.194 48.3467 163.954 48.6533 163.581 48.84C163.208 49.0267 162.634 49.12 161.861 49.12C160.928 49.12 160.208 49.0267 159.701 48.84C159.194 48.6267 158.941 48.2267 158.941 47.64C162.434 33.9067 164.594 25.32 165.421 21.88C165.394 21.5333 165.368 21.08 165.341 20.52C165.341 19.9333 165.341 19.48 165.341 19.16C165.421 18.7867 165.701 18.5067 166.181 18.32C166.688 18.1067 167.194 18 167.701 18C168.554 18 169.274 18.2267 169.861 18.68C170.448 19.1333 170.768 19.7067 170.821 20.4L166.381 35.8Z"/>
<path d="M185.878 47.48C185.851 47.64 185.784 47.96 185.678 48.44C185.598 48.8933 185.371 49.2133 184.998 49.4C184.651 49.5867 184.091 49.68 183.318 49.68C182.438 49.68 181.798 49.5867 181.398 49.4C180.998 49.2133 180.798 48.8133 180.798 48.2C180.878 47.88 181.451 45.6 182.518 41.36C183.291 38.08 183.864 35.7733 184.238 34.44C184.638 32.5467 185.104 31.3067 185.638 30.72C186.171 30.1067 186.784 29.8 187.478 29.8C188.411 29.8 189.011 29.9333 189.278 30.2C189.571 30.4667 189.718 30.8133 189.718 31.24L189.238 33.6C190.091 32.56 191.078 31.7067 192.198 31.04C193.344 30.3467 194.358 30 195.238 30C196.384 30 197.278 30.2 197.918 30.6C198.558 31 198.878 31.52 198.878 32.16C198.878 32.64 198.571 33.0267 197.958 33.32C197.371 33.5867 196.598 33.76 195.638 33.84C194.198 33.9733 192.718 34.6 191.198 35.72C189.704 36.84 188.584 38.16 187.838 39.68L185.878 47.48Z"/>
</mask>
<path d="M4.00003 27C4.00003 26.6267 4.1067 26.3333 4.32003 26.12C4.56003 25.88 4.88003 25.6667 5.28003 25.48C5.41337 25.4 5.89337 25.16 6.72003 24.76C7.57337 24.36 8.3867 24.0533 9.16003 23.84C9.40003 23.3067 9.76003 22.8667 10.24 22.52C10.7467 22.1733 11.3867 22 12.16 22C12.6134 22 12.9867 22.0933 13.28 22.28C13.5734 22.44 13.7734 22.6533 13.88 22.92C14.8667 22.6 16.0534 22.44 17.44 22.44C19.1734 22.44 20.6667 22.8133 21.92 23.56C23.2 24.28 24.16 25.28 24.8 26.56C25.4667 27.84 25.8 29.28 25.8 30.88C25.8 31.2 25.76 31.64 25.68 32.2C24.5867 38.44 19.92 41.56 11.68 41.56C10.9334 41.56 10.3867 41.5467 10.04 41.52L9.52003 43.44C8.96003 45.4933 8.68003 46.5467 8.68003 46.6C8.4667 47.5333 8.13337 48.2533 7.68003 48.76C7.25337 49.2667 6.5467 49.52 5.56003 49.52C4.73337 49.52 4.12003 49.3733 3.72003 49.08C3.3467 48.8133 3.16003 48.3467 3.16003 47.68C3.16003 47.3867 3.20003 47.1067 3.28003 46.84L8.12003 28.16C6.73337 28.56 5.68003 29.1067 4.96003 29.8C4.6667 29.48 4.4267 29.0667 4.24003 28.56C4.08003 28.0267 4.00003 27.5067 4.00003 27ZM10.88 37.8C11.2 37.8267 11.6534 37.84 12.24 37.84C14.7734 37.84 16.7734 37.36 18.24 36.4C19.7334 35.44 20.6934 33.96 21.12 31.96C21.2 31.5067 21.24 31.1733 21.24 30.96C21.24 29.4667 20.8267 28.36 20 27.64C19.1734 26.8933 18.0134 26.52 16.52 26.52C15.72 26.52 14.6934 26.7067 13.44 27.08C12.4 31.2133 11.5467 34.7867 10.88 37.8Z" fill="#FF204D"/>
<path d="M34.7769 49.84C32.4302 49.84 30.6036 49.04 29.2969 47.44C27.9902 45.84 27.3369 43.8 27.3369 41.32C27.3369 39.24 27.8302 37.28 28.8169 35.44C29.8302 33.6 31.2036 32.12 32.9369 31C34.6702 29.88 36.5769 29.32 38.6569 29.32C40.7102 29.32 42.3902 30 43.6969 31.36C45.0302 32.6933 45.6969 34.6667 45.6969 37.28C45.6969 39.12 45.1902 41.0267 44.1769 43C43.1636 44.9733 41.8036 46.6133 40.0969 47.92C38.4169 49.2 36.6436 49.84 34.7769 49.84ZM35.3769 46.64C36.2302 46.64 37.0836 46.1067 37.9369 45.04C38.8169 43.9733 39.5369 42.6267 40.0969 41C40.6569 39.3733 40.9369 37.7867 40.9369 36.24C40.9369 33.8667 39.9502 32.68 37.9769 32.68C36.8836 32.68 35.8836 33.2 34.9769 34.24C34.0702 35.28 33.3502 36.5733 32.8169 38.12C32.2836 39.64 32.0169 41.0667 32.0169 42.4C32.0169 43.1733 32.1902 43.8933 32.5369 44.56C32.8836 45.2 33.3102 45.7067 33.8169 46.08C34.3502 46.4533 34.8702 46.64 35.3769 46.64Z" fill="#FF204D"/>
<path d="M51.8494 47.24C51.8227 47.4 51.4627 48.8533 50.7694 51.6C50.1027 54.3733 49.6361 56.12 49.3694 56.84C49.2627 57.1333 48.9427 57.3467 48.4094 57.48C47.8761 57.64 47.4894 57.72 47.2494 57.72C46.6627 57.72 46.1827 57.5333 45.8094 57.16C45.4094 56.7867 45.1961 56.2267 45.1694 55.48L47.9694 44C49.0361 39.8133 49.9161 36.24 50.6094 33.28C50.6094 33.12 50.5161 32.6933 50.3294 32C50.2494 31.5733 50.1694 31.1733 50.0894 30.8C50.0094 30.4267 49.9561 30.1467 49.9294 29.96C49.9827 29.6133 50.2494 29.3333 50.7294 29.12C51.2361 28.9067 51.7027 28.8 52.1294 28.8C52.7694 28.8 53.3961 29.0267 54.0094 29.48C54.6494 29.9333 55.0094 30.48 55.0894 31.12L54.9694 32.16C56.1694 30.6667 57.7027 29.92 59.5694 29.92C61.0894 29.92 62.3961 30.2933 63.4894 31.04C64.6094 31.76 65.4627 32.7467 66.0494 34C66.6361 35.2267 66.9294 36.5867 66.9294 38.08C66.9294 40.08 66.5427 41.96 65.7694 43.72C64.9961 45.48 63.8361 46.9067 62.2894 48C60.7427 49.0667 58.8761 49.6 56.6894 49.6C55.9961 49.6 55.1027 49.3733 54.0094 48.92C52.9161 48.44 52.1961 47.88 51.8494 47.24ZM53.0894 42.16C53.0361 42.48 53.0094 42.7067 53.0094 42.84C53.0361 43.5067 53.2494 44.0933 53.6494 44.6C54.0761 45.1067 54.5694 45.5067 55.1294 45.8C55.6894 46.0667 56.1561 46.2 56.5294 46.2C57.7027 46.2 58.7294 45.76 59.6094 44.88C60.5161 43.9733 61.2094 42.8667 61.6894 41.56C62.1694 40.2267 62.4094 38.96 62.4094 37.76C62.4094 36.64 62.1027 35.6533 61.4894 34.8C60.9027 33.92 60.1561 33.48 59.2494 33.48C58.2361 33.48 57.3961 33.7067 56.7294 34.16C56.0894 34.5867 55.3561 35.2533 54.5294 36.16L53.0894 42.16Z" fill="#FF204D"/>
<path d="M98.8222 22.28C99.8089 22.4667 100.449 22.6267 100.742 22.76C101.062 22.8667 101.276 23.04 101.382 23.28C100.822 25.44 100.089 28.5067 99.1822 32.48C98.2756 36.4267 97.6622 39.08 97.3422 40.44C96.7556 43.16 96.2089 45.5733 95.7022 47.68C95.3289 49.1467 94.7422 49.88 93.9422 49.88C91.4889 49.88 90.2622 49.3067 90.2622 48.16C90.2622 48.5067 90.5689 47.2533 91.1822 44.4C91.7956 41.5467 92.1689 39.8133 92.3022 39.2L93.1822 35.04L84.3022 48C83.8756 48.5333 83.2489 48.8 82.4222 48.8C81.7289 48.8 81.0756 48.6267 80.4622 48.28C79.8755 47.9333 79.6222 47.5867 79.7022 47.24C79.5156 46.3333 79.1689 44.6133 78.6622 42.08C78.1556 39.52 77.6356 36.8533 77.1022 34.08L73.7422 47.56C73.5556 48.3333 73.2622 48.8533 72.8622 49.12C72.4889 49.3867 71.7689 49.52 70.7022 49.52C69.8756 49.52 69.2622 49.3733 68.8622 49.08C68.4889 48.8133 68.3022 48.3467 68.3022 47.68C68.3022 47.3867 68.3422 47.1067 68.4222 46.84L73.9022 25.2C74.1956 24.0267 74.5022 23.2533 74.8222 22.88C75.1689 22.48 75.7822 22.28 76.6622 22.28C77.3822 22.28 78.0222 22.36 78.5822 22.52C79.1422 22.68 79.4356 22.92 79.4622 23.24V23.32L83.1422 43.2L95.8222 24C96.0889 23.4133 96.3822 23.0267 96.7022 22.84C97.0489 22.6533 97.4356 22.5333 97.8622 22.48C98.2889 22.4 98.6089 22.3333 98.8222 22.28Z" fill="#FF204D"/>
<path d="M118.681 48.32C118.494 48.8 118.054 49.12 117.361 49.28C116.694 49.4667 116.108 49.56 115.601 49.56C115.121 49.56 114.801 49.44 114.641 49.2C114.508 48.9867 114.388 48.6533 114.281 48.2C114.174 47.7467 114.108 47.44 114.081 47.28C112.934 48.0533 111.761 48.64 110.561 49.04C109.388 49.4667 108.401 49.68 107.601 49.68C106.908 49.68 106.121 49.4533 105.241 49C104.388 48.5467 103.654 47.9333 103.041 47.16C102.428 46.3867 102.121 45.5333 102.121 44.6C102.121 43.1067 102.614 41.2 103.601 38.88C104.588 36.56 105.974 34.5333 107.761 32.8C109.574 31.0667 111.681 30.2 114.081 30.2C116.188 30.2 118.068 30.5333 119.721 31.2C121.374 31.8667 122.201 32.8133 122.201 34.04C121.454 35.4267 120.641 37.5067 119.761 40.28C118.908 43.0533 118.481 45.1067 118.481 46.44C118.481 47.32 118.548 47.9467 118.681 48.32ZM114.161 43.92C114.374 42.7467 114.734 41.36 115.241 39.76C115.774 38.1333 116.481 36.5067 117.361 34.88C117.228 34.3467 116.801 34 116.081 33.84C115.388 33.6533 114.761 33.56 114.201 33.56C113.214 33.56 112.148 34.2267 111.001 35.56C109.854 36.8933 108.868 38.4533 108.041 40.24C107.241 42 106.841 43.4267 106.841 44.52C106.841 45.0533 106.988 45.44 107.281 45.68C107.574 45.8933 107.948 46 108.401 46C109.014 46 109.988 45.7733 111.321 45.32C112.681 44.84 113.628 44.3733 114.161 43.92Z" fill="#FF204D"/>
<path d="M128.719 44.52C128.719 45.1333 128.826 45.56 129.039 45.8C129.252 46.04 129.652 46.16 130.239 46.16C131.012 46.16 131.652 46 132.159 45.68C132.692 45.3333 133.332 44.8 134.079 44.08C134.292 43.8667 134.532 43.76 134.799 43.76C135.119 43.76 135.372 44 135.559 44.48C135.746 44.9333 135.839 45.4 135.839 45.88C135.839 46.5467 135.572 47.2 135.039 47.84C134.506 48.48 133.732 49 132.719 49.4C131.706 49.8 130.519 50 129.159 50C127.346 50 126.052 49.5867 125.279 48.76C124.532 47.9333 124.159 46.6667 124.159 44.96C124.159 44.72 124.279 44.0933 124.519 43.08C124.759 42.0667 125.066 40.8533 125.439 39.44L126.559 34.88L124.119 35.08C123.799 35.08 123.559 34.96 123.399 34.72C123.239 34.48 123.159 34.1867 123.159 33.84C123.159 33.1733 123.399 32.5067 123.879 31.84C123.932 31.76 124.199 31.68 124.679 31.6C125.159 31.52 125.746 31.44 126.439 31.36L127.519 31.24L128.439 27.12C128.706 26.4267 129.106 25.8933 129.639 25.52C130.199 25.12 130.719 24.92 131.199 24.92C131.732 24.92 132.186 25.08 132.559 25.4C132.932 25.72 133.132 26.0933 133.159 26.52L132.159 30.8C133.199 30.6667 134.159 30.56 135.039 30.48C135.946 30.3733 136.652 30.32 137.159 30.32C138.172 30.32 138.679 30.9067 138.679 32.08C138.679 32.5333 138.479 32.9467 138.079 33.32C137.706 33.6667 137.292 33.88 136.839 33.96L131.239 34.52L128.719 44.52Z" fill="#FF204D"/>
<path d="M159.02 43.04C158.727 43.92 158.033 44.8933 156.94 45.96C155.873 47.0267 154.567 47.9467 153.02 48.72C151.473 49.4667 149.86 49.84 148.18 49.84C146.82 49.84 145.54 49.5867 144.34 49.08C143.167 48.5733 142.22 47.8 141.5 46.76C140.78 45.72 140.42 44.4533 140.42 42.96C140.42 40.4533 140.913 38.2267 141.9 36.28C142.887 34.3333 144.287 32.8133 146.1 31.72C147.94 30.6 150.06 30.04 152.46 30.04C154.007 30.04 155.34 30.4933 156.46 31.4C157.607 32.3067 158.193 33.5067 158.22 35C158.22 35.5867 158.02 36.08 157.62 36.48C157.22 36.8533 156.633 37.04 155.86 37.04C155.247 37.04 154.793 36.9067 154.5 36.64C154.233 36.3467 153.967 35.9067 153.7 35.32C153.433 34.7067 153.14 34.24 152.82 33.92C152.5 33.6 151.993 33.44 151.3 33.44C150.5 33.44 149.62 33.8667 148.66 34.72C147.7 35.5467 146.887 36.72 146.22 38.24C145.553 39.7333 145.22 41.4267 145.22 43.32C145.22 44.12 145.527 44.8267 146.14 45.44C146.78 46.0267 147.647 46.32 148.74 46.32C149.647 46.32 150.5 46.0267 151.3 45.44C152.1 44.8267 153.02 43.96 154.06 42.84C154.727 42.1467 155.247 41.64 155.62 41.32C156.02 41 156.367 40.84 156.66 40.84C157.993 40.84 158.78 41.5733 159.02 43.04Z" fill="#FF204D"/>
<path d="M166.381 35.8C166.994 34.6 167.834 33.5733 168.901 32.72C169.994 31.8667 171.101 31.2133 172.221 30.76C173.341 30.3067 174.261 30.08 174.981 30.08C176.368 30.08 177.368 30.3467 177.981 30.88C178.594 31.3867 178.901 32.2 178.901 33.32C177.328 37.4267 176.288 41.8533 175.781 46.6L176.341 48.56C176.021 49.1733 175.594 49.6533 175.061 50C174.528 50.3733 173.714 50.56 172.621 50.56C171.981 50.56 171.514 50.3467 171.221 49.92C170.928 49.4933 170.781 48.96 170.781 48.32C170.781 46.5333 171.034 44.5733 171.541 42.44C172.074 40.28 172.688 38.08 173.381 35.84C173.648 34.9867 173.781 34.5467 173.781 34.52C173.781 34.1467 173.568 33.96 173.141 33.96C172.581 33.96 171.768 34.3733 170.701 35.2C169.634 36.0267 168.528 37.4267 167.381 39.4C166.234 41.3467 165.274 43.9067 164.501 47.08C164.474 47.2133 164.408 47.4933 164.301 47.92C164.194 48.3467 163.954 48.6533 163.581 48.84C163.208 49.0267 162.634 49.12 161.861 49.12C160.928 49.12 160.208 49.0267 159.701 48.84C159.194 48.6267 158.941 48.2267 158.941 47.64C162.434 33.9067 164.594 25.32 165.421 21.88C165.394 21.5333 165.368 21.08 165.341 20.52C165.341 19.9333 165.341 19.48 165.341 19.16C165.421 18.7867 165.701 18.5067 166.181 18.32C166.688 18.1067 167.194 18 167.701 18C168.554 18 169.274 18.2267 169.861 18.68C170.448 19.1333 170.768 19.7067 170.821 20.4L166.381 35.8Z" fill="#FF204D"/>
<path d="M185.878 47.48C185.851 47.64 185.784 47.96 185.678 48.44C185.598 48.8933 185.371 49.2133 184.998 49.4C184.651 49.5867 184.091 49.68 183.318 49.68C182.438 49.68 181.798 49.5867 181.398 49.4C180.998 49.2133 180.798 48.8133 180.798 48.2C180.878 47.88 181.451 45.6 182.518 41.36C183.291 38.08 183.864 35.7733 184.238 34.44C184.638 32.5467 185.104 31.3067 185.638 30.72C186.171 30.1067 186.784 29.8 187.478 29.8C188.411 29.8 189.011 29.9333 189.278 30.2C189.571 30.4667 189.718 30.8133 189.718 31.24L189.238 33.6C190.091 32.56 191.078 31.7067 192.198 31.04C193.344 30.3467 194.358 30 195.238 30C196.384 30 197.278 30.2 197.918 30.6C198.558 31 198.878 31.52 198.878 32.16C198.878 32.64 198.571 33.0267 197.958 33.32C197.371 33.5867 196.598 33.76 195.638 33.84C194.198 33.9733 192.718 34.6 191.198 35.72C189.704 36.84 188.584 38.16 187.838 39.68L185.878 47.48Z" fill="#FF204D"/>
<path d="M4.00003 27C4.00003 26.6267 4.1067 26.3333 4.32003 26.12C4.56003 25.88 4.88003 25.6667 5.28003 25.48C5.41337 25.4 5.89337 25.16 6.72003 24.76C7.57337 24.36 8.3867 24.0533 9.16003 23.84C9.40003 23.3067 9.76003 22.8667 10.24 22.52C10.7467 22.1733 11.3867 22 12.16 22C12.6134 22 12.9867 22.0933 13.28 22.28C13.5734 22.44 13.7734 22.6533 13.88 22.92C14.8667 22.6 16.0534 22.44 17.44 22.44C19.1734 22.44 20.6667 22.8133 21.92 23.56C23.2 24.28 24.16 25.28 24.8 26.56C25.4667 27.84 25.8 29.28 25.8 30.88C25.8 31.2 25.76 31.64 25.68 32.2C24.5867 38.44 19.92 41.56 11.68 41.56C10.9334 41.56 10.3867 41.5467 10.04 41.52L9.52003 43.44C8.96003 45.4933 8.68003 46.5467 8.68003 46.6C8.4667 47.5333 8.13337 48.2533 7.68003 48.76C7.25337 49.2667 6.5467 49.52 5.56003 49.52C4.73337 49.52 4.12003 49.3733 3.72003 49.08C3.3467 48.8133 3.16003 48.3467 3.16003 47.68C3.16003 47.3867 3.20003 47.1067 3.28003 46.84L8.12003 28.16C6.73337 28.56 5.68003 29.1067 4.96003 29.8C4.6667 29.48 4.4267 29.0667 4.24003 28.56C4.08003 28.0267 4.00003 27.5067 4.00003 27ZM10.88 37.8C11.2 37.8267 11.6534 37.84 12.24 37.84C14.7734 37.84 16.7734 37.36 18.24 36.4C19.7334 35.44 20.6934 33.96 21.12 31.96C21.2 31.5067 21.24 31.1733 21.24 30.96C21.24 29.4667 20.8267 28.36 20 27.64C19.1734 26.8933 18.0134 26.52 16.52 26.52C15.72 26.52 14.6934 26.7067 13.44 27.08C12.4 31.2133 11.5467 34.7867 10.88 37.8Z" stroke="#FFD5C3" stroke-width="6" mask="url(#path-1-outside-1_138_54)"/>
<path d="M34.7769 49.84C32.4302 49.84 30.6036 49.04 29.2969 47.44C27.9902 45.84 27.3369 43.8 27.3369 41.32C27.3369 39.24 27.8302 37.28 28.8169 35.44C29.8302 33.6 31.2036 32.12 32.9369 31C34.6702 29.88 36.5769 29.32 38.6569 29.32C40.7102 29.32 42.3902 30 43.6969 31.36C45.0302 32.6933 45.6969 34.6667 45.6969 37.28C45.6969 39.12 45.1902 41.0267 44.1769 43C43.1636 44.9733 41.8036 46.6133 40.0969 47.92C38.4169 49.2 36.6436 49.84 34.7769 49.84ZM35.3769 46.64C36.2302 46.64 37.0836 46.1067 37.9369 45.04C38.8169 43.9733 39.5369 42.6267 40.0969 41C40.6569 39.3733 40.9369 37.7867 40.9369 36.24C40.9369 33.8667 39.9502 32.68 37.9769 32.68C36.8836 32.68 35.8836 33.2 34.9769 34.24C34.0702 35.28 33.3502 36.5733 32.8169 38.12C32.2836 39.64 32.0169 41.0667 32.0169 42.4C32.0169 43.1733 32.1902 43.8933 32.5369 44.56C32.8836 45.2 33.3102 45.7067 33.8169 46.08C34.3502 46.4533 34.8702 46.64 35.3769 46.64Z" stroke="#FFD5C3" stroke-width="6" mask="url(#path-1-outside-1_138_54)"/>
<path d="M51.8494 47.24C51.8227 47.4 51.4627 48.8533 50.7694 51.6C50.1027 54.3733 49.6361 56.12 49.3694 56.84C49.2627 57.1333 48.9427 57.3467 48.4094 57.48C47.8761 57.64 47.4894 57.72 47.2494 57.72C46.6627 57.72 46.1827 57.5333 45.8094 57.16C45.4094 56.7867 45.1961 56.2267 45.1694 55.48L47.9694 44C49.0361 39.8133 49.9161 36.24 50.6094 33.28C50.6094 33.12 50.5161 32.6933 50.3294 32C50.2494 31.5733 50.1694 31.1733 50.0894 30.8C50.0094 30.4267 49.9561 30.1467 49.9294 29.96C49.9827 29.6133 50.2494 29.3333 50.7294 29.12C51.2361 28.9067 51.7027 28.8 52.1294 28.8C52.7694 28.8 53.3961 29.0267 54.0094 29.48C54.6494 29.9333 55.0094 30.48 55.0894 31.12L54.9694 32.16C56.1694 30.6667 57.7027 29.92 59.5694 29.92C61.0894 29.92 62.3961 30.2933 63.4894 31.04C64.6094 31.76 65.4627 32.7467 66.0494 34C66.6361 35.2267 66.9294 36.5867 66.9294 38.08C66.9294 40.08 66.5427 41.96 65.7694 43.72C64.9961 45.48 63.8361 46.9067 62.2894 48C60.7427 49.0667 58.8761 49.6 56.6894 49.6C55.9961 49.6 55.1027 49.3733 54.0094 48.92C52.9161 48.44 52.1961 47.88 51.8494 47.24ZM53.0894 42.16C53.0361 42.48 53.0094 42.7067 53.0094 42.84C53.0361 43.5067 53.2494 44.0933 53.6494 44.6C54.0761 45.1067 54.5694 45.5067 55.1294 45.8C55.6894 46.0667 56.1561 46.2 56.5294 46.2C57.7027 46.2 58.7294 45.76 59.6094 44.88C60.5161 43.9733 61.2094 42.8667 61.6894 41.56C62.1694 40.2267 62.4094 38.96 62.4094 37.76C62.4094 36.64 62.1027 35.6533 61.4894 34.8C60.9027 33.92 60.1561 33.48 59.2494 33.48C58.2361 33.48 57.3961 33.7067 56.7294 34.16C56.0894 34.5867 55.3561 35.2533 54.5294 36.16L53.0894 42.16Z" stroke="#FFD5C3" stroke-width="6" mask="url(#path-1-outside-1_138_54)"/>
<path d="M98.8222 22.28C99.8089 22.4667 100.449 22.6267 100.742 22.76C101.062 22.8667 101.276 23.04 101.382 23.28C100.822 25.44 100.089 28.5067 99.1822 32.48C98.2756 36.4267 97.6622 39.08 97.3422 40.44C96.7556 43.16 96.2089 45.5733 95.7022 47.68C95.3289 49.1467 94.7422 49.88 93.9422 49.88C91.4889 49.88 90.2622 49.3067 90.2622 48.16C90.2622 48.5067 90.5689 47.2533 91.1822 44.4C91.7956 41.5467 92.1689 39.8133 92.3022 39.2L93.1822 35.04L84.3022 48C83.8756 48.5333 83.2489 48.8 82.4222 48.8C81.7289 48.8 81.0756 48.6267 80.4622 48.28C79.8755 47.9333 79.6222 47.5867 79.7022 47.24C79.5156 46.3333 79.1689 44.6133 78.6622 42.08C78.1556 39.52 77.6356 36.8533 77.1022 34.08L73.7422 47.56C73.5556 48.3333 73.2622 48.8533 72.8622 49.12C72.4889 49.3867 71.7689 49.52 70.7022 49.52C69.8756 49.52 69.2622 49.3733 68.8622 49.08C68.4889 48.8133 68.3022 48.3467 68.3022 47.68C68.3022 47.3867 68.3422 47.1067 68.4222 46.84L73.9022 25.2C74.1956 24.0267 74.5022 23.2533 74.8222 22.88C75.1689 22.48 75.7822 22.28 76.6622 22.28C77.3822 22.28 78.0222 22.36 78.5822 22.52C79.1422 22.68 79.4356 22.92 79.4622 23.24V23.32L83.1422 43.2L95.8222 24C96.0889 23.4133 96.3822 23.0267 96.7022 22.84C97.0489 22.6533 97.4356 22.5333 97.8622 22.48C98.2889 22.4 98.6089 22.3333 98.8222 22.28Z" stroke="#FFD5C3" stroke-width="6" mask="url(#path-1-outside-1_138_54)"/>
<path d="M118.681 48.32C118.494 48.8 118.054 49.12 117.361 49.28C116.694 49.4667 116.108 49.56 115.601 49.56C115.121 49.56 114.801 49.44 114.641 49.2C114.508 48.9867 114.388 48.6533 114.281 48.2C114.174 47.7467 114.108 47.44 114.081 47.28C112.934 48.0533 111.761 48.64 110.561 49.04C109.388 49.4667 108.401 49.68 107.601 49.68C106.908 49.68 106.121 49.4533 105.241 49C104.388 48.5467 103.654 47.9333 103.041 47.16C102.428 46.3867 102.121 45.5333 102.121 44.6C102.121 43.1067 102.614 41.2 103.601 38.88C104.588 36.56 105.974 34.5333 107.761 32.8C109.574 31.0667 111.681 30.2 114.081 30.2C116.188 30.2 118.068 30.5333 119.721 31.2C121.374 31.8667 122.201 32.8133 122.201 34.04C121.454 35.4267 120.641 37.5067 119.761 40.28C118.908 43.0533 118.481 45.1067 118.481 46.44C118.481 47.32 118.548 47.9467 118.681 48.32ZM114.161 43.92C114.374 42.7467 114.734 41.36 115.241 39.76C115.774 38.1333 116.481 36.5067 117.361 34.88C117.228 34.3467 116.801 34 116.081 33.84C115.388 33.6533 114.761 33.56 114.201 33.56C113.214 33.56 112.148 34.2267 111.001 35.56C109.854 36.8933 108.868 38.4533 108.041 40.24C107.241 42 106.841 43.4267 106.841 44.52C106.841 45.0533 106.988 45.44 107.281 45.68C107.574 45.8933 107.948 46 108.401 46C109.014 46 109.988 45.7733 111.321 45.32C112.681 44.84 113.628 44.3733 114.161 43.92Z" stroke="#FFD5C3" stroke-width="6" mask="url(#path-1-outside-1_138_54)"/>
<path d="M128.719 44.52C128.719 45.1333 128.826 45.56 129.039 45.8C129.252 46.04 129.652 46.16 130.239 46.16C131.012 46.16 131.652 46 132.159 45.68C132.692 45.3333 133.332 44.8 134.079 44.08C134.292 43.8667 134.532 43.76 134.799 43.76C135.119 43.76 135.372 44 135.559 44.48C135.746 44.9333 135.839 45.4 135.839 45.88C135.839 46.5467 135.572 47.2 135.039 47.84C134.506 48.48 133.732 49 132.719 49.4C131.706 49.8 130.519 50 129.159 50C127.346 50 126.052 49.5867 125.279 48.76C124.532 47.9333 124.159 46.6667 124.159 44.96C124.159 44.72 124.279 44.0933 124.519 43.08C124.759 42.0667 125.066 40.8533 125.439 39.44L126.559 34.88L124.119 35.08C123.799 35.08 123.559 34.96 123.399 34.72C123.239 34.48 123.159 34.1867 123.159 33.84C123.159 33.1733 123.399 32.5067 123.879 31.84C123.932 31.76 124.199 31.68 124.679 31.6C125.159 31.52 125.746 31.44 126.439 31.36L127.519 31.24L128.439 27.12C128.706 26.4267 129.106 25.8933 129.639 25.52C130.199 25.12 130.719 24.92 131.199 24.92C131.732 24.92 132.186 25.08 132.559 25.4C132.932 25.72 133.132 26.0933 133.159 26.52L132.159 30.8C133.199 30.6667 134.159 30.56 135.039 30.48C135.946 30.3733 136.652 30.32 137.159 30.32C138.172 30.32 138.679 30.9067 138.679 32.08C138.679 32.5333 138.479 32.9467 138.079 33.32C137.706 33.6667 137.292 33.88 136.839 33.96L131.239 34.52L128.719 44.52Z" stroke="#FFD5C3" stroke-width="6" mask="url(#path-1-outside-1_138_54)"/>
<path d="M159.02 43.04C158.727 43.92 158.033 44.8933 156.94 45.96C155.873 47.0267 154.567 47.9467 153.02 48.72C151.473 49.4667 149.86 49.84 148.18 49.84C146.82 49.84 145.54 49.5867 144.34 49.08C143.167 48.5733 142.22 47.8 141.5 46.76C140.78 45.72 140.42 44.4533 140.42 42.96C140.42 40.4533 140.913 38.2267 141.9 36.28C142.887 34.3333 144.287 32.8133 146.1 31.72C147.94 30.6 150.06 30.04 152.46 30.04C154.007 30.04 155.34 30.4933 156.46 31.4C157.607 32.3067 158.193 33.5067 158.22 35C158.22 35.5867 158.02 36.08 157.62 36.48C157.22 36.8533 156.633 37.04 155.86 37.04C155.247 37.04 154.793 36.9067 154.5 36.64C154.233 36.3467 153.967 35.9067 153.7 35.32C153.433 34.7067 153.14 34.24 152.82 33.92C152.5 33.6 151.993 33.44 151.3 33.44C150.5 33.44 149.62 33.8667 148.66 34.72C147.7 35.5467 146.887 36.72 146.22 38.24C145.553 39.7333 145.22 41.4267 145.22 43.32C145.22 44.12 145.527 44.8267 146.14 45.44C146.78 46.0267 147.647 46.32 148.74 46.32C149.647 46.32 150.5 46.0267 151.3 45.44C152.1 44.8267 153.02 43.96 154.06 42.84C154.727 42.1467 155.247 41.64 155.62 41.32C156.02 41 156.367 40.84 156.66 40.84C157.993 40.84 158.78 41.5733 159.02 43.04Z" stroke="#FFD5C3" stroke-width="6" mask="url(#path-1-outside-1_138_54)"/>
<path d="M166.381 35.8C166.994 34.6 167.834 33.5733 168.901 32.72C169.994 31.8667 171.101 31.2133 172.221 30.76C173.341 30.3067 174.261 30.08 174.981 30.08C176.368 30.08 177.368 30.3467 177.981 30.88C178.594 31.3867 178.901 32.2 178.901 33.32C177.328 37.4267 176.288 41.8533 175.781 46.6L176.341 48.56C176.021 49.1733 175.594 49.6533 175.061 50C174.528 50.3733 173.714 50.56 172.621 50.56C171.981 50.56 171.514 50.3467 171.221 49.92C170.928 49.4933 170.781 48.96 170.781 48.32C170.781 46.5333 171.034 44.5733 171.541 42.44C172.074 40.28 172.688 38.08 173.381 35.84C173.648 34.9867 173.781 34.5467 173.781 34.52C173.781 34.1467 173.568 33.96 173.141 33.96C172.581 33.96 171.768 34.3733 170.701 35.2C169.634 36.0267 168.528 37.4267 167.381 39.4C166.234 41.3467 165.274 43.9067 164.501 47.08C164.474 47.2133 164.408 47.4933 164.301 47.92C164.194 48.3467 163.954 48.6533 163.581 48.84C163.208 49.0267 162.634 49.12 161.861 49.12C160.928 49.12 160.208 49.0267 159.701 48.84C159.194 48.6267 158.941 48.2267 158.941 47.64C162.434 33.9067 164.594 25.32 165.421 21.88C165.394 21.5333 165.368 21.08 165.341 20.52C165.341 19.9333 165.341 19.48 165.341 19.16C165.421 18.7867 165.701 18.5067 166.181 18.32C166.688 18.1067 167.194 18 167.701 18C168.554 18 169.274 18.2267 169.861 18.68C170.448 19.1333 170.768 19.7067 170.821 20.4L166.381 35.8Z" stroke="#FFD5C3" stroke-width="6" mask="url(#path-1-outside-1_138_54)"/>
<path d="M185.878 47.48C185.851 47.64 185.784 47.96 185.678 48.44C185.598 48.8933 185.371 49.2133 184.998 49.4C184.651 49.5867 184.091 49.68 183.318 49.68C182.438 49.68 181.798 49.5867 181.398 49.4C180.998 49.2133 180.798 48.8133 180.798 48.2C180.878 47.88 181.451 45.6 182.518 41.36C183.291 38.08 183.864 35.7733 184.238 34.44C184.638 32.5467 185.104 31.3067 185.638 30.72C186.171 30.1067 186.784 29.8 187.478 29.8C188.411 29.8 189.011 29.9333 189.278 30.2C189.571 30.4667 189.718 30.8133 189.718 31.24L189.238 33.6C190.091 32.56 191.078 31.7067 192.198 31.04C193.344 30.3467 194.358 30 195.238 30C196.384 30 197.278 30.2 197.918 30.6C198.558 31 198.878 31.52 198.878 32.16C198.878 32.64 198.571 33.0267 197.958 33.32C197.371 33.5867 196.598 33.76 195.638 33.84C194.198 33.9733 192.718 34.6 191.198 35.72C189.704 36.84 188.584 38.16 187.838 39.68L185.878 47.48Z" stroke="#FFD5C3" stroke-width="6" mask="url(#path-1-outside-1_138_54)"/>
</svg>
