<svg width="201" height="52" viewBox="0 0 201 52" fill="none" xmlns="http://www.w3.org/2000/svg">
<path d="M179 28C183.418 28 187 31.5817 187 36V44C187 48.4183 183.418 52 179 52H8C3.58172 52 1.28855e-07 48.4183 0 44V36C0 31.5817 3.58172 28 8 28H27V37C27 41.4183 30.5817 45 35 45H165C169.418 45 173 41.4183 173 37V28H179Z" fill="#FF204D"/>
<path d="M193 0C197.418 8.37533e-07 201 3.58172 201 8V15C201 19.4183 197.418 23 193 23H173V14C173 9.58172 169.418 6 165 6H35C30.5817 6 27 9.58172 27 14V23H22C17.5817 23 14 19.4183 14 15V8C14 3.58172 17.5817 8.45586e-08 22 0H193Z" fill="#643A71"/>
<path d="M41.669 33.301C41.0698 33.301 40.4706 33.2333 39.8714 33.098C39.2722 32.9433 38.7117 32.7403 38.1898 32.489C37.6679 32.2183 37.2233 31.9283 36.8561 31.619L36.1603 33.127H33L36.5082 11H40.1033L38.8856 18.714C39.6201 18.2887 40.4029 17.9697 41.2341 17.757C42.0845 17.525 42.8094 17.409 43.4086 17.409C44.8775 17.409 46.0469 17.873 46.9167 18.801C47.7865 19.7097 48.2214 21.034 48.2214 22.774C48.2214 23.2187 48.1924 23.7503 48.1345 24.369C48.0765 24.9683 47.9895 25.6063 47.8735 26.283C47.6609 27.7523 47.2743 29.009 46.7138 30.053C46.1532 31.097 45.4477 31.8993 44.5973 32.46C43.7468 33.0207 42.7707 33.301 41.669 33.301ZM40.6252 30.401C41.669 30.401 42.5001 30.0047 43.1186 29.212C43.7371 28.4 44.1817 27.1143 44.4523 25.355C44.5103 24.9683 44.5586 24.6107 44.5973 24.282C44.6359 23.934 44.6553 23.615 44.6553 23.325C44.6553 22.2037 44.4233 21.4207 43.9594 20.976C43.4955 20.5313 42.9253 20.309 42.2488 20.309C41.6496 20.309 41.0215 20.396 40.3643 20.57C39.7071 20.744 39.0789 20.9857 38.4797 21.295L37.204 29.328C37.6292 29.6373 38.1125 29.8983 38.6537 30.111C39.1949 30.3043 39.8521 30.401 40.6252 30.401Z" fill="#643A71"/>
<path d="M56.2858 33.301C55.0101 33.301 53.9277 33.1077 53.0386 32.721C52.1495 32.3343 51.473 31.7543 51.0091 30.981C50.5452 30.1883 50.3132 29.1733 50.3132 27.936C50.3132 27.414 50.3326 26.921 50.3712 26.457C50.4099 25.9737 50.4679 25.5 50.5452 25.036C50.7965 23.47 51.1347 22.194 51.56 21.208C51.9852 20.222 52.5264 19.4583 53.1836 18.917C53.8408 18.3563 54.6236 17.9697 55.532 17.757C56.4598 17.525 57.5422 17.409 58.7793 17.409C60.3449 17.409 61.5529 17.612 62.4034 18.018C63.2732 18.424 63.8724 19.0427 64.201 19.874C64.5489 20.7053 64.7229 21.7493 64.7229 23.006C64.7229 23.47 64.7035 23.963 64.6649 24.485C64.6262 25.007 64.5586 25.5483 64.4619 26.109C64.172 28.0037 63.6984 29.473 63.0413 30.517C62.3841 31.561 61.5046 32.286 60.4029 32.692C59.3205 33.098 57.9481 33.301 56.2858 33.301ZM56.6917 30.401C57.3103 30.401 57.8515 30.3333 58.3154 30.198C58.7793 30.0627 59.1658 29.8307 59.4751 29.502C59.8037 29.154 60.0743 28.661 60.2869 28.023C60.5188 27.385 60.7218 26.573 60.8958 25.587C60.9731 25.0263 61.0311 24.5333 61.0697 24.108C61.1277 23.6633 61.1567 23.2477 61.1567 22.861C61.1567 21.8943 60.9344 21.2177 60.4899 20.831C60.0453 20.4443 59.3108 20.251 58.2864 20.251C57.6292 20.251 57.0687 20.3283 56.6048 20.483C56.1602 20.6377 55.7736 20.9083 55.445 21.295C55.1165 21.6623 54.8458 22.2037 54.6332 22.919C54.4206 23.615 54.2273 24.5043 54.0534 25.587C53.9954 26.0123 53.9471 26.4087 53.9084 26.776C53.8697 27.124 53.8504 27.4623 53.8504 27.791C53.8504 28.487 53.9664 29.0283 54.1983 29.415C54.4303 29.7823 54.7492 30.0433 55.1551 30.198C55.5803 30.3333 56.0926 30.401 56.6917 30.401Z" fill="#643A71"/>
<path d="M65.1951 40L68.6743 18.105C69.8534 17.8923 71.0421 17.728 72.2405 17.612C73.4582 17.4767 74.7822 17.409 76.2125 17.409C78.0101 17.409 79.3052 17.8633 80.0976 18.772C80.8901 19.6807 81.2864 21.0533 81.2864 22.89C81.2864 23.3733 81.2574 23.876 81.1994 24.398C81.1607 24.92 81.0931 25.442 80.9964 25.964C80.7452 27.5687 80.3006 28.922 79.6627 30.024C79.0249 31.1067 78.2131 31.9283 77.2273 32.489C76.2415 33.0303 75.0915 33.301 73.7771 33.301C73.0426 33.301 72.3468 33.243 71.6896 33.127C71.0518 33.011 70.4719 32.8273 69.95 32.576L68.7903 40H65.1951ZM73.3712 30.256C74.2024 30.256 74.8885 30.082 75.4297 29.734C75.9903 29.3667 76.4348 28.8157 76.7634 28.081C77.1113 27.327 77.3819 26.3797 77.5752 25.239C77.6139 24.9683 77.6525 24.688 77.6912 24.398C77.7299 24.0887 77.7492 23.789 77.7492 23.499C77.7492 22.4163 77.5462 21.614 77.1403 21.092C76.7538 20.57 76.1256 20.309 75.2558 20.309L71.8926 20.338L70.3849 29.734C70.7522 29.85 71.0808 29.9467 71.3707 30.024C71.6606 30.1013 71.9602 30.1593 72.2695 30.198C72.5981 30.2367 72.9653 30.256 73.3712 30.256Z" fill="#643A71"/>
<path d="M82.8037 33.127L85.2392 17.583H88.1965L88.5734 19.207C89.3465 18.7043 90.1873 18.279 91.0958 17.931C92.0236 17.5637 93.077 17.38 94.2561 17.38C95.2418 17.38 96.0246 17.5733 96.6045 17.96C97.2037 18.3273 97.6773 18.9073 98.0252 19.7C98.9143 18.9073 99.8904 18.3273 100.953 17.96C102.036 17.5733 103.051 17.38 103.998 17.38C105.447 17.38 106.491 17.7087 107.129 18.366C107.786 19.004 108.115 19.9223 108.115 21.121C108.115 21.469 108.095 21.8267 108.057 22.194C108.037 22.542 107.999 22.8803 107.941 23.209L106.375 33.127H102.78L104.346 23.296C104.365 23.18 104.375 23.064 104.375 22.948C104.394 22.832 104.404 22.716 104.404 22.6C104.404 21.266 103.66 20.599 102.171 20.599C101.398 20.599 100.673 20.744 99.9967 21.034C99.3395 21.3047 98.6727 21.672 97.9962 22.136C98.0155 22.31 98.0155 22.513 97.9962 22.745C97.9962 22.9577 97.9672 23.1993 97.9092 23.47L96.3726 33.127H92.8064L94.314 23.441C94.3527 23.2477 94.372 23.093 94.372 22.977C94.3914 22.861 94.401 22.7257 94.401 22.571C94.401 21.933 94.2271 21.4497 93.8792 21.121C93.5312 20.773 92.9707 20.599 92.1975 20.599C91.3664 20.599 90.6416 20.7343 90.0231 21.005C89.4239 21.2757 88.8053 21.614 88.1675 22.02L86.3989 33.127H82.8037Z" fill="#FF204D"/>
<path d="M114.6 33.301C113.808 33.301 113.083 33.1173 112.426 32.75C111.769 32.3827 111.237 31.8123 110.831 31.039C110.445 30.2463 110.251 29.2313 110.251 27.994C110.251 27.4527 110.29 26.892 110.367 26.312C110.445 25.732 110.512 25.239 110.57 24.833C110.841 23.151 111.295 21.7687 111.933 20.686C112.571 19.584 113.441 18.7623 114.542 18.221C115.663 17.6797 117.055 17.409 118.717 17.409C119.529 17.409 120.331 17.4863 121.124 17.641C121.936 17.7763 122.68 17.9793 123.356 18.25C124.033 18.5207 124.603 18.8397 125.067 19.207L122.863 33.127H119.703L119.529 31.532C119.258 31.7447 118.853 31.996 118.311 32.286C117.77 32.5567 117.171 32.7983 116.514 33.011C115.876 33.2043 115.238 33.301 114.6 33.301ZM116.282 30.401C117.016 30.401 117.674 30.2753 118.253 30.024C118.833 29.7533 119.374 29.473 119.877 29.183L121.182 20.918C120.969 20.802 120.631 20.6763 120.167 20.541C119.703 20.3863 119.162 20.309 118.543 20.309C117.596 20.309 116.823 20.4927 116.224 20.86C115.644 21.2273 115.18 21.7687 114.832 22.484C114.504 23.18 114.252 24.0597 114.078 25.123C114.001 25.587 113.943 26.0123 113.904 26.399C113.866 26.7857 113.846 27.1047 113.846 27.356C113.846 28.284 114.049 29.0283 114.455 29.589C114.88 30.1303 115.489 30.401 116.282 30.401Z" fill="#FF204D"/>
<path d="M132.528 33.127C131.059 33.127 129.958 32.8467 129.223 32.286C128.489 31.706 128.121 30.836 128.121 29.676C128.121 29.3087 128.141 28.9123 128.179 28.487C128.237 28.0423 128.305 27.559 128.382 27.037L129.571 20.483H127.107L127.484 18.163L130.122 17.583L131.311 13.233H134.123L133.427 17.583H137.37L136.935 20.483H132.992L131.949 27.066C131.91 27.2787 131.862 27.5493 131.804 27.878C131.765 28.1873 131.746 28.4677 131.746 28.719C131.746 29.241 131.881 29.6277 132.152 29.879C132.422 30.111 132.838 30.256 133.398 30.314L135.196 30.488L134.761 33.127H132.528Z" fill="#FF204D"/>
<path d="M144.021 33.301C142.9 33.301 141.914 33.127 141.064 32.779C140.213 32.431 139.556 31.8413 139.092 31.01C138.648 30.1787 138.425 29.009 138.425 27.501C138.425 27.153 138.445 26.747 138.483 26.283C138.541 25.7997 138.609 25.2873 138.686 24.746C138.976 22.948 139.45 21.5173 140.107 20.454C140.764 19.3907 141.586 18.6173 142.571 18.134C143.557 17.6507 144.669 17.409 145.906 17.409C146.717 17.409 147.587 17.4767 148.515 17.612C149.443 17.7473 150.322 17.9117 151.153 18.105L150.805 20.193H146.688C145.838 20.193 145.113 20.367 144.514 20.715C143.934 21.063 143.451 21.6237 143.064 22.397C142.697 23.151 142.407 24.1467 142.195 25.384C142.117 25.79 142.059 26.1477 142.021 26.457C142.001 26.747 141.992 26.9887 141.992 27.182C141.992 28.0327 142.108 28.7093 142.339 29.212C142.591 29.6953 142.948 30.0433 143.412 30.256C143.895 30.4687 144.475 30.575 145.152 30.575H149.443L149.124 32.605C148.486 32.8177 147.752 32.9917 146.92 33.127C146.109 33.243 145.142 33.301 144.021 33.301Z" fill="#FF204D"/>
<path d="M151.663 33.127L155.171 11H158.766L157.432 19.207C158.128 18.7237 158.959 18.2983 159.926 17.931C160.892 17.5637 161.955 17.38 163.115 17.38C164.371 17.38 165.328 17.6893 165.985 18.308C166.662 18.9267 167 19.903 167 21.237C167 21.7203 166.961 22.281 166.884 22.919L165.231 33.127H161.665L163.173 23.354C163.212 23.2187 163.231 23.0833 163.231 22.948C163.25 22.8127 163.26 22.687 163.26 22.571C163.26 21.8363 163.067 21.324 162.68 21.034C162.293 20.744 161.781 20.599 161.143 20.599C160.332 20.599 159.607 20.7247 158.969 20.976C158.331 21.2273 157.684 21.5753 157.026 22.02L155.258 33.127H151.663Z" fill="#FF204D"/>
</svg>
